<?xml version="1.0" standalone="no"?><!DOCTYPE svg PUBLIC "-//W3C//DTD SVG 1.1//EN" "http://www.w3.org/Graphics/SVG/1.1/DTD/svg11.dtd"><svg t="1561100148057" class="icon" viewBox="0 0 1057 1024" version="1.1" xmlns="http://www.w3.org/2000/svg" p-id="11068" xmlns:xlink="http://www.w3.org/1999/xlink" width="206.4453125" height="200"><defs><style type="text/css"></style></defs><path d="M214.986203 752.659779c19.723833 0 38.186013 8.011493 51.454391 21.27987a72.292684 72.292684 0 0 1 21.595284 51.748777c0 20.249521-8.095603 38.98506-21.595284 52.23241-13.268378 13.226323-31.751586 21.847614-51.454391 21.847615-19.997191 0-38.417316-8.621292-51.980079-21.847615a73.302006 73.302006 0 0 1-21.88967-52.23241c0-20.039246 8.368961-38.480399 21.88967-51.748777a74.12208 74.12208 0 0 1 51.980079-21.27987zM126.607451 0h804.261363c34.590304 0 66.531138 14.088452 89.114716 36.714085v0.252331a126.880178 126.880178 0 0 1 37.218746 89.156771v143.470908a125.723664 125.723664 0 0 1-33.265569 84.951262c20.543907 22.962074 33.265569 53.34687 33.265569 85.540035v143.029329a125.597498 125.597498 0 0 1-33.265569 85.308731 128.036693 128.036693 0 0 1 33.265569 86.08675v142.356448c0 34.590304-14.572085 66.615248-37.218746 89.493212-22.583578 23.613928-54.54544 37.407994-89.114716 37.407994H126.607451a124.377901 124.377901 0 0 1-89.409101-37.407994A127.069426 127.069426 0 0 1 0.000631 896.845623v-142.356448c0-33.097348 12.763717-63.461117 34.043588-86.086751A122.800836 122.800836 0 0 1 0.000631 583.114721V440.106419a125.534416 125.534416 0 0 1 34.043588-85.540034A123.053166 123.053166 0 0 1 0.000631 269.594095V126.123187c0-34.569276 14.319755-66.531138 37.197719-89.156771v-0.252331C60.580975 14.088452 91.743789 0 126.607451 0z m804.261363 81.355554H126.607451c-12.469331 0-23.382625 4.710169-31.436173 12.301111l-0.756991 0.504661c-7.885328 8.579236-13.016047 19.681778-13.016047 31.961861v143.470908c0 11.417954 4.668114 22.604606 12.427276 30.700208l0.588771 0.756992c8.263823 7.506832 18.714511 12.448304 30.595071 12.679607h806.826723a45.524625 45.524625 0 0 0 30.237603-12.448304l0.483633-0.231303c8.284851-8.326906 13.24735-20.039246 13.24735-31.4572V126.123187c0-11.943643-4.9625-22.604606-12.238028-30.742264l-1.009322-1.240625a46.302644 46.302644 0 0 0-31.688503-12.784744z m0.967267 313.751929H125.009358a46.891415 46.891415 0 0 0-29.859107 12.784744l-0.735964 0.483634v0.525688a44.998936 44.998936 0 0 0-13.016047 31.183843v143.029329c0 11.943643 4.668114 22.920019 12.427276 31.20487l0.588771 0.483633v0.525689c8.263823 7.548887 18.714511 12.763717 30.595071 12.763717h806.826723c11.733368 0 22.604606-4.9625 30.237603-12.195974l0.483633-0.567743v-0.525689c8.284851-7.464777 13.24735-19.429447 13.24735-31.709531v-142.987274c0-11.417954-4.9625-22.646661-12.238028-30.595071l-1.009322-0.588771v-0.525689a47.837654 47.837654 0 0 0-30.721236-13.289405z m0 314.382755H125.009358c-11.417954 0-21.805559 4.920444-29.859107 12.195974l-0.735964 0.735964v0.33644a45.209212 45.209212 0 0 0-13.016047 31.751586v142.356448c0 12.763717 4.668114 23.698038 12.427276 31.4572l0.588771 0.525689c8.263823 8.305878 19.40842 13.226323 32.172137 13.226323h804.261362c11.943643 0 23.109267-4.605031 31.225898-12.153919l0.483633-1.072404c8.284851-8.053548 13.24735-18.966841 13.24735-31.982889v-142.356448c0-12.280084-4.9625-23.277487-12.238028-31.246925l-1.009322-0.483633v-0.336441c-7.212446-7.822245-18.735538-12.952965-30.721236-12.952965zM214.986203 123.999405c19.723833 0 38.186013 8.621292 51.454391 21.910697a71.851105 71.851105 0 0 1 21.595284 51.349254 72.545014 72.545014 0 0 1-21.595284 52.043162v0.252331a72.082408 72.082408 0 0 1-51.454391 21.385008 73.323033 73.323033 0 0 1-51.980079-21.385008v-0.252331a72.734262 72.734262 0 0 1-21.88967-52.043162c0-19.976163 8.368961-37.891628 21.88967-51.349254 13.541736-13.268378 31.961861-21.910697 51.980079-21.910697z m17.137446 56.185588a24.013451 24.013451 0 0 0-17.137446-7.023198c-6.728813 0-12.99502 2.628443-17.684161 7.023198v0.231303a23.214405 23.214405 0 0 0-7.254502 16.864087c0 7.065254 3.091048 13.037075 7.254502 17.705189 4.689141 4.920444 10.955349 7.065254 17.684161 7.065254 6.560593 0 12.931937-2.144809 17.137446-7.065254a24.391947 24.391947 0 0 0 7.254501-17.705189c0-6.686758-2.607415-13.268378-7.254501-16.864087v-0.231303z m-17.137446 258.323333a72.334739 72.334739 0 0 1 51.454391 21.595284 72.250629 72.250629 0 0 1 0 103.01392v0.25233a72.019326 72.019326 0 0 1-51.454391 21.406037 73.238923 73.238923 0 0 1-51.980079-21.406037v-0.25233a71.914188 71.914188 0 0 1-21.88967-51.265143c0-20.039246 8.368961-38.501426 21.88967-51.748777a73.512281 73.512281 0 0 1 51.980079-21.595284z m17.137446 55.659899c-4.205508-3.658792-10.59788-7.023198-17.137446-7.023198-6.728813 0-12.99502 3.364406-17.684161 7.023198v0.231303a26.747031 26.747031 0 0 0-7.254502 17.473886c0 6.812923 3.091048 13.142213 7.254502 17.179501 4.689141 4.436811 10.955349 7.002171 17.684161 7.002171 6.560593 0 12.931937-2.56536 17.137446-7.002171 4.647086-4.037288 7.254501-10.366577 7.254501-17.179501 0-6.539565-2.607415-12.99502-7.254501-17.473886v-0.231303z m0 314.298646c-4.205508-4.394756-10.59788-6.770868-17.137446-6.770868-6.728813 0-12.99502 2.376112-17.684161 6.770868a25.884902 25.884902 0 0 0-7.254502 17.200528c0 6.728813 3.091048 13.268378 7.254502 17.705188v0.483634c4.689141 3.700847 10.955349 6.770868 17.684161 6.770868 6.560593 0 12.931937-3.070021 17.137446-6.770868v-0.483634c4.647086-4.436811 7.254501-10.955349 7.254501-17.705188 0-6.518538-2.607415-12.805772-7.254501-17.200528z" p-id="11069" fill="#1296db"></path></svg>